PathFileType	4	(X/Y/Z)	Patient4_TMGait_0pt6_01_left_12.trc.trc
DataRate	CameraRate	NumFrames	NumMarkers	Units	OrigDataRate	OrigDataStartFrame	OrigNumFrames
80.000000000000	80.000000000000	5	33	mm	80.000000000000	71	       141
Frame#	Time	Sacral			L.Shoulder			Chest			R.Shoulder			Neck			R.ASIS			L.ASIS			R.Thigh.Superior			R.Thigh.Lateral			R.Thigh.Inferior			R.Patella			L.Thigh.Superior			L.Thigh.Lateral			L.Thigh.Inferior			L.Patella			L.Shank.Superior			L.Shank.Lateral			L.Shank.Inferior			R.Shank.Superior			R.Shank.Lateral			R.Shank.Inferior			R.Heel			R.Midfoot.Superior			R.Midfoot.Lateral			R.Toe			L.Heel			L.Midfoot.Lateral			L.Midfoot.Superior			L.Toe			L.Elbow			L.Wrist			R.Elbow			R.Wrist			
		X1	Y1	Z1	X2	Y2	Z2	X3	Y3	Z3	X4	Y4	Z4	X5	Y5	Z5	X6	Y6	Z6	X7	Y7	Z7	X8	Y8	Z8	X9	Y9	Z9	X10	Y10	Z10	X11	Y11	Z11	X12	Y12	Z12	X13	Y13	Z13	X14	Y14	Z14	X15	Y15	Z15	X16	Y16	Z16	X17	Y17	Z17	X18	Y18	Z18	X19	Y19	Z19	X20	Y20	Z20	X21	Y21	Z21	X22	Y22	Z22	X23	Y23	Z23	X24	Y24	Z24	X25	Y25	Z25	X26	Y26	Z26	X27	Y27	Z27	X28	Y28	Z28	X29	Y29	Z29	X30	Y30	Z30	X31	Y31	Z31	X32	Y32	Z32	X33	Y33	Z33	

71	15.395000000000	659.025058025440	1004.411867586160	424.315414369525	852.688073852063	1437.840382739781	267.359519499492	938.910938049361	1361.346344003434	434.373247673135	840.733994386299	1429.235966396336	601.477180980790	818.635207107777	1492.655502036768	421.455798593469	879.235663496567	941.808281865945	556.803246817687	880.736097858889	959.333087636187	281.096570594039	954.114444214871	768.715915185201	525.646810861175	911.712021833987	646.791606135132	598.384056151620	998.684121505201	608.886025228037	516.724310515624	1033.132338262454	524.370664091870	533.951066726370	886.142690225621	730.317233936790	310.603872461002	767.665758374618	636.649474240063	247.556483297697	825.904699274777	543.869787428255	313.625782813948	810.441384669787	478.657367871763	323.363151859328	780.129640917934	412.649981800434	315.917003835988	681.800782946245	304.328527308996	269.063076853819	725.904700193462	191.401277387768	342.216055292605	1013.907792075379	435.913904092270	542.744327849044	957.941931005237	322.917645341398	605.076996963300	1023.957238792194	235.610754009559	551.467811335070	926.468393926509	48.948670795540	520.604969493657	1087.462464810032	122.584241412333	561.703539105407	1009.826055446162	46.929339800973	595.745766754139	1212.467918843970	86.812408187944	592.005654395861	591.004102047664	39.507476805699	393.317431846216	659.935868623869	35.001821410326	308.600947200529	745.476462732969	95.740544375871	329.750515670271	871.445616449021	40.667518132572	294.379376948783	927.772789560323	1112.024491154031	113.273476228045	1177.531647029336	1045.150419205350	119.167895413660	681.576395292412	1119.026570537416	689.118806377225	635.056278970848	861.524103290272	682.983008479614	
72	15.407500000000	660.089958446866	1002.653850470953	425.869388818494	852.632401001789	1436.364764017615	268.743668061856	938.723318761985	1360.258149648169	435.937193000231	840.199316853064	1428.143447024232	602.844863798841	818.144178556425	1491.228200087072	422.808107589714	880.202121038159	940.335212500493	558.533106072358	881.904320866936	958.034511518355	282.748277843653	953.852723252130	765.868962491894	527.898281874320	909.422805394618	643.926139271275	599.861312815633	996.631225292515	605.865972687956	518.695444272720	1030.169195342524	522.265703632834	535.123260748284	884.974476834644	728.720481212673	311.977323242397	765.782076100340	635.997331035515	248.712539344862	822.944603804009	542.649238975082	314.811349594109	806.906373847916	477.324829980115	324.386646470154	775.885801760014	411.648509864444	316.791346095044	676.432995076616	304.364782668726	269.640796885191	719.394918131966	190.866011743814	342.532778766705	1012.649074910822	433.681780442087	543.754455881305	958.139510112361	319.386918533137	604.939664674080	1026.295865898670	233.529446305518	551.451899608496	932.330377903463	45.638778868260	519.169185617534	1092.057310278304	121.441237301209	561.403960774861	1015.221182551881	44.879451723439	594.839533750798	1217.400934076856	87.168894898667	592.362121820603	583.426300371160	39.362216523801	393.331328906909	652.391233288175	34.924052635074	308.643779139813	737.909593807325	95.675802749443	329.857413558727	863.909882014293	40.587311878628	294.390058667002	929.821023046029	1111.281085275559	114.787277588678	1180.228822607010	1047.420210982578	121.013818608792	679.937621264873	1118.866889585102	690.394994781280	631.913983092854	861.579335160585	684.690146928915	
73	15.420000000000	661.331176154343	1000.792059584920	427.656095231429	852.414944067236	1434.823519441628	270.257249125183	938.517294224868	1359.199498528454	437.598236978933	839.636766520089	1426.968563312742	604.367955396997	817.582213355049	1489.747422910943	424.307634873089	881.396811797022	938.765512261326	560.407276117188	883.293938475810	956.700696580965	284.585769225189	954.156600698586	763.150928498853	530.289472166202	907.574403847741	641.051270487687	601.118473846633	995.264488526992	603.038444695540	520.693491565638	1027.594451942406	519.904342943101	536.239279588050	884.121273256719	727.146340865864	313.478967618015	764.394788717764	635.248182305112	250.060410915384	820.588919293919	541.353080040364	316.152622992231	804.007246174139	475.802668443520	325.599310148392	772.166673542781	410.471774025965	317.826489090516	671.439657561972	304.396985877856	270.362472307865	713.043204776458	190.239656265390	342.911054821079	1011.170680197274	431.075991418047	544.592750102765	957.115661216951	315.993208781182	604.481568004769	1026.634978352173	231.099624420132	551.167386952672	934.502806852249	43.275257578259	517.434404480367	1093.631477575386	119.544223831574	560.798466701570	1016.808608220978	43.069989317888	593.681253920563	1218.832824873816	85.496950083828	592.434120473273	575.826814847769	39.193572253982	393.320995594121	644.857639835465	34.808501913467	308.689166835498	730.365945644102	95.592889677544	329.967946673769	856.419395305240	40.480194097141	294.383670143547	931.354718725657	1110.279510546730	116.486532610904	1182.245593023265	1048.731922243453	122.967509636081	679.361979993885	1117.957940761327	691.977325343315	630.652973366733	860.758296988486	686.695289436917	
74	15.432500000000	662.725177080480	998.885321757427	429.660803541033	852.051082535343	1433.256516007430	271.908231159946	938.315773380666	1358.204032280427	439.362660392556	839.073227377035	1425.745137323983	606.056442526303	816.971447831172	1488.257159874504	425.951364624937	882.798613102447	937.146321108712	562.419569491416	884.864830987256	955.368338400305	286.610929032545	955.016550668656	760.604490373087	532.784988935990	906.161724273405	638.240941097411	602.143240180357	994.571753666335	600.460720286820	522.685541136459	1025.442901761111	517.367501941219	537.241072162744	883.667671109859	725.618496827245	315.088379041207	763.547766888321	634.403237322713	251.600424087118	818.929031618402	539.986512438832	317.634097836785	801.858041518638	474.074579702049	326.966366062719	769.045437538718	409.113391928977	319.005665721272	666.866340614655	304.451637498462	271.224835217336	706.876874222360	189.540874055938	343.340841774779	1009.568767749157	428.195383181371	545.231452029904	955.145067315115	312.769590919693	603.829216458509	1025.259267553911	228.359713861257	550.652329802943	933.355036713482	41.689417761439	515.601997364071	1092.559268270068	116.970571954001	559.926891560178	1015.058460226119	41.458063224680	592.410639961410	1217.255851281166	82.052722561696	592.170371478903	568.207908008371	39.064436131280	393.276921623598	637.337109239304	34.674938728325	308.731093591164	722.870566052465	95.493731879194	330.064452803688	848.980370853319	40.342082426637	294.356067646233	932.352001528352	1109.027971750551	118.374633998482	1183.581054564377	1049.069586739068	125.011437460149	679.821048349287	1116.347948683162	693.859939710219	631.255828084176	859.103849342731	688.999965541207	
75	15.445000000000	664.240198888401	997.003366567521	431.861376632088	851.564159507973	1431.718640084749	273.702409164353	938.142910120281	1357.310900498535	441.234302438841	838.545153937503	1424.520768708429	607.916350659228	816.339854978490	1486.814427945405	427.737342840253	884.376282457353	935.543683139528	564.561048425739	886.565654432208	954.086694780625	288.817145306013	956.381154742854	758.269139737341	535.342089483415	905.171013155982	635.589559534409	602.966033668408	994.482434222649	598.177840495759	524.631897151134	1023.712892016820	514.756327609233	538.091228470588	883.691816644223	724.174083178322	316.785480501713	763.290786269502	633.468082175732	253.328562582289	818.074056203911	538.565555301684	319.235508830446	800.593547303420	472.134075584521	328.436587948538	766.608450652365	407.578944981666	320.300519891722	662.769261672296	304.573934151432	272.217510383214	700.937724956778	188.808365707369	343.803715928981	1007.929455889933	425.176355467371	545.674134819963	952.540120343518	309.777603183167	603.132465493353	1022.527677577480	225.415800016593	549.968606841135	929.442239203398	40.719091336390	513.858006701480	1089.319345844091	113.901038064471	558.860519169513	1010.604764263965	40.038591674526	591.162903995977	1213.271148545497	77.291453169671	591.574268292609	560.582198363151	39.081466097603	393.189992225262	629.835050251761	34.568697093442	308.761832493084	715.461373047434	95.387120037713	330.123373840605	841.594552035781	40.167527197588	294.304859508485	932.792232137183	1107.549364514276	120.460941701700	1184.223676018113	1048.418882451660	127.128057160820	681.283855849747	1114.121815960892	696.027212204567	633.688677293377	856.701269016802	691.600128849125	
